<svg width="180" height="180" viewBox="0 0 180 180" fill="none" xmlns="http://www.w3.org/2000/svg">
<rect width="180" height="180" fill="white"/>
<path d="M146.478 30H29V151H80.1327C74.8347 149.081 70.256 145.577 67.0185 140.965C63.781 136.353 62.0417 130.856 62.0369 125.221C62.0344 121.613 62.7429 118.039 64.1219 114.705C65.5009 111.371 67.5234 108.341 70.0738 105.789C72.6243 103.237 75.6526 101.212 78.9859 99.8307C82.3191 98.4493 85.8919 97.7383 89.5 97.7383C96.7836 97.7383 103.769 100.632 108.919 105.782C114.07 110.932 116.963 117.918 116.963 125.201C116.958 130.836 115.219 136.333 111.981 140.945C108.744 145.557 104.165 149.061 98.8672 150.981H150V30H146.478Z" fill="#141415"/>
</svg>